<?xml version="1.0" encoding="utf-8"?>
<!-- Generator: Adobe Illustrator 14.0.0, SVG Export Plug-In . SVG Version: 6.00 Build 43363)  -->
<!DOCTYPE svg PUBLIC "-//W3C//DTD SVG 1.1//EN" "http://www.w3.org/Graphics/SVG/1.1/DTD/svg11.dtd">
<svg version="1.1" xmlns="http://www.w3.org/2000/svg" xmlns:xlink="http://www.w3.org/1999/xlink" x="0px" y="0px" width="38px"
	 height="38px" viewBox="0 0 38 38" enable-background="new 0 0 38 38" xml:space="preserve">
<g id="Layer_1" display="none">
	<g display="inline">
		<path fill-rule="evenodd" clip-rule="evenodd" fill="#FFFFFF" d="M30.974,0.001H7.026c-1.118,0-2.024,0.906-2.024,2.024v33.948
			c0,1.118,0.906,2.024,2.024,2.024h23.947c1.118,0,2.024-0.906,2.024-2.024V2.025C32.998,0.908,32.092,0.001,30.974,0.001z
			 M18.965,35.867c-1.062,0-1.923-0.86-1.923-1.923c0-1.062,0.861-1.922,1.923-1.922s1.922,0.86,1.922,1.922
			C20.887,35.007,20.026,35.867,18.965,35.867z M30.001,26.875c0,1.167-0.946,2.114-2.114,2.114H10.113
			c-1.168,0-2.115-0.947-2.115-2.114V5.068c0-1.167,0.947-2.114,2.115-2.114h17.773c1.168,0,2.114,0.947,2.114,2.114V26.875z"/>
		<g>
			<rect x="22.989" y="8.99" fill-rule="evenodd" clip-rule="evenodd" fill="#FFFFFF" width="1.994" height="1.994"/>
			<rect x="12.989" y="8.99" fill-rule="evenodd" clip-rule="evenodd" fill="#FFFFFF" width="1.994" height="1.994"/>
			<rect x="11.989" y="20.99" fill-rule="evenodd" clip-rule="evenodd" fill="#FFFFFF" width="1.994" height="1.994"/>
			<path fill-rule="evenodd" clip-rule="evenodd" fill="#FFFFFF" d="M25.989,10.99v2.994v0.003h-1.006V12.99h-1v-1h-1v-1h-1.994v1
				h-1v1h-2.006v-1h-1v-1h-1.994v1h-1v1h-1v0.997h-1.006V10.99H9.989v2.997v2.997h1.994h0.006v0.006v1.994h1.994h0.006v0.006v1.994
				h1.994V18.99v-0.006h0.006h5.994h0.006v0.006v1.994h1.994V18.99v-0.006h0.006h1.994V16.99v-0.006h0.006h1.994v-2.997V10.99
				H25.989z M16.989,15.99h-0.006h-1.994h-0.006v-2.006h0.006h1.994h0.006V15.99z M22.98,15.99h-1.991h-0.006v-2.006h0.006h1.994
				h0.006l-0.014,1.992L22.98,15.99z"/>
			<rect x="23.989" y="20.99" fill-rule="evenodd" clip-rule="evenodd" fill="#FFFFFF" width="1.994" height="1.994"/>
		</g>
	</g>
</g>
<g id="Layer_2" display="none">
	<g display="inline">
		<rect x="6.397" y="3.713" fill-rule="evenodd" clip-rule="evenodd" fill="#FFFFFF" width="3.598" height="3.596"/>
		<rect x="11.819" y="3.713" fill-rule="evenodd" clip-rule="evenodd" fill="#FFFFFF" width="3.597" height="3.596"/>
		<rect x="22.609" y="3.713" fill-rule="evenodd" clip-rule="evenodd" fill="#FFFFFF" width="3.598" height="3.596"/>
		<rect x="28.006" y="3.713" fill-rule="evenodd" clip-rule="evenodd" fill="#FFFFFF" width="3.596" height="3.596"/>
		<rect x="1.002" y="9.107" fill-rule="evenodd" clip-rule="evenodd" fill="#FFFFFF" width="3.597" height="3.598"/>
		<rect x="6.397" y="9.107" fill-rule="evenodd" clip-rule="evenodd" fill="#FFFFFF" width="3.598" height="3.598"/>
		<rect x="11.819" y="9.107" fill-rule="evenodd" clip-rule="evenodd" fill="#FFFFFF" width="3.597" height="3.598"/>
		<rect x="17.214" y="9.107" fill-rule="evenodd" clip-rule="evenodd" fill="#FFFFFF" width="3.598" height="3.598"/>
		<rect x="22.609" y="9.107" fill-rule="evenodd" clip-rule="evenodd" fill="#FFFFFF" width="3.598" height="3.598"/>
		<rect x="28.006" y="9.107" fill-rule="evenodd" clip-rule="evenodd" fill="#FFFFFF" width="3.596" height="3.598"/>
		<rect x="33.402" y="9.107" fill-rule="evenodd" clip-rule="evenodd" fill="#FFFFFF" width="3.596" height="3.598"/>
		<rect x="1.002" y="14.503" fill-rule="evenodd" clip-rule="evenodd" fill="#FFFFFF" width="3.597" height="3.597"/>
		<rect x="6.397" y="14.503" fill-rule="evenodd" clip-rule="evenodd" fill="#FFFFFF" width="3.598" height="3.597"/>
		<rect x="11.819" y="14.503" fill-rule="evenodd" clip-rule="evenodd" fill="#FFFFFF" width="3.597" height="3.597"/>
		<rect x="17.214" y="14.503" fill-rule="evenodd" clip-rule="evenodd" fill="#FFFFFF" width="3.598" height="3.597"/>
		<rect x="22.609" y="14.503" fill-rule="evenodd" clip-rule="evenodd" fill="#FFFFFF" width="3.598" height="3.597"/>
		<rect x="28.006" y="14.503" fill-rule="evenodd" clip-rule="evenodd" fill="#FFFFFF" width="3.596" height="3.597"/>
		<rect x="33.402" y="14.503" fill-rule="evenodd" clip-rule="evenodd" fill="#FFFFFF" width="3.596" height="3.597"/>
		<rect x="6.397" y="19.898" fill-rule="evenodd" clip-rule="evenodd" fill="#FFFFFF" width="3.598" height="3.599"/>
		<rect x="11.819" y="19.898" fill-rule="evenodd" clip-rule="evenodd" fill="#FFFFFF" width="3.597" height="3.599"/>
		<rect x="17.214" y="19.898" fill-rule="evenodd" clip-rule="evenodd" fill="#FFFFFF" width="3.598" height="3.599"/>
		<rect x="22.609" y="19.898" fill-rule="evenodd" clip-rule="evenodd" fill="#FFFFFF" width="3.598" height="3.599"/>
		<rect x="28.006" y="19.898" fill-rule="evenodd" clip-rule="evenodd" fill="#FFFFFF" width="3.596" height="3.599"/>
		<rect x="11.819" y="25.294" fill-rule="evenodd" clip-rule="evenodd" fill="#FFFFFF" width="3.597" height="3.595"/>
		<rect x="17.214" y="25.294" fill-rule="evenodd" clip-rule="evenodd" fill="#FFFFFF" width="3.598" height="3.595"/>
		<rect x="22.609" y="25.294" fill-rule="evenodd" clip-rule="evenodd" fill="#FFFFFF" width="3.598" height="3.595"/>
		<rect x="17.214" y="30.688" fill-rule="evenodd" clip-rule="evenodd" fill="#FFFFFF" width="3.598" height="3.599"/>
	</g>
</g>
<g id="Layer_3">
	<path fill="#FFFFFF" d="M35.525,33.854c-1.375,0-2.496-1.12-2.496-2.495V14.903c0-3.18-2.586-5.768-5.766-5.768
		c-3.181,0-5.769,2.587-5.769,5.767c0,5.932-4.826,10.759-10.758,10.759c-2.084,0-4.073-0.594-5.768-1.674v7.372
		c0,1.375-1.119,2.495-2.494,2.495c-1.376,0-2.496-1.12-2.496-2.495V14.903c0-5.932,4.826-10.758,10.758-10.758
		c3.251,0,6.252,1.454,8.263,3.868c2.01-2.415,5.011-3.868,8.264-3.868c5.932,0,10.757,4.826,10.757,10.758v16.456
		C38.021,32.734,36.9,33.854,35.525,33.854L35.525,33.854z M10.737,9.135c-3.18,0-5.768,2.588-5.768,5.768
		c0,3.181,2.588,5.768,5.768,5.768c3.181,0,5.767-2.587,5.767-5.767C16.504,11.723,13.918,9.135,10.737,9.135L10.737,9.135z"/>
</g>
</svg>
